<svg version="1.1" id="Layer_1" xmlns="http://www.w3.org/2000/svg" xmlns:xlink="http://www.w3.org/1999/xlink" x="0px" y="0px"
	 width="100%" viewBox="0 0 305 303" enable-background="new 0 0 305 303" xml:space="preserve">
<path fill="#000000" opacity="1.000000" stroke="none" 
	d="
M306.000000,173.000000 
	C306.000000,216.632965 306.000000,260.265930 306.000000,303.949463 
	C204.445541,303.949463 102.891037,303.949463 1.000000,303.949463 
	C1.000000,260.646362 1.000000,217.291840 1.279868,173.162094 
	C5.967734,179.012726 10.480314,185.479919 17.243748,190.091354 
	C30.714901,199.276260 46.049850,198.844727 61.287949,198.877075 
	C62.470726,198.879562 64.093079,197.650238 64.774284,196.540939 
	C72.354454,184.197311 79.962975,171.863846 87.157860,159.295242 
	C89.324539,155.510315 91.447327,155.457199 94.658836,157.269089 
	C99.244514,159.856262 103.869690,162.373428 108.477989,164.920517 
	C108.854172,164.595657 109.230354,164.270813 109.606537,163.945969 
	C105.682137,156.941406 101.757729,149.936859 97.904259,142.572388 
	C91.990562,131.175507 85.892372,120.198021 80.069382,109.076447 
	C77.172218,103.543045 75.091492,99.521744 66.664642,100.562340 
	C53.363945,102.204781 39.711582,100.999374 26.208067,100.999359 
	C19.301722,100.999352 12.395377,100.999352 4.037495,100.999352 
	C10.226744,105.872902 15.100365,110.128677 20.414028,113.736305 
	C23.554550,115.868507 23.273468,117.809654 21.812939,120.533714 
	C17.846064,127.932449 13.954263,135.371445 9.714580,142.957153 
	C7.552779,146.237106 5.790924,149.407547 3.819954,152.442154 
	C3.151596,153.471191 1.955135,154.157227 0.999999,155.000000 
	C1.000000,103.749336 1.000000,52.498680 1.000000,1.000000 
	C40.020546,1.000000 79.041611,1.000000 118.874039,1.221551 
	C120.295784,2.295481 120.721451,3.589231 121.544434,3.933686 
	C132.922241,8.695771 141.637131,16.846617 147.832947,27.059563 
	C157.968445,43.766491 167.128860,61.067520 176.599274,78.174026 
	C180.070389,84.443954 179.958344,84.546013 173.945084,88.529030 
	C170.574417,90.761665 167.091919,92.826378 163.740158,95.085930 
	C162.961075,95.611130 162.509323,96.621880 161.568848,97.851181 
	C185.135712,97.851181 207.913834,97.851181 230.470612,97.851181 
	C242.345352,78.248650 254.095459,58.851868 265.845551,39.455086 
	C265.527832,39.045227 265.210114,38.635368 264.892395,38.225510 
	C258.221222,41.614677 251.550049,45.003841 244.889557,48.387581 
	C240.026901,39.419022 235.258301,31.001932 230.854034,22.398336 
	C226.116470,13.143676 219.245300,6.462134 209.378708,2.935797 
	C208.766693,2.717066 208.452667,1.664578 208.000000,1.000000 
	C240.610092,1.000000 273.220184,1.000000 306.000000,1.000000 
	C306.000000,52.354103 306.000000,103.708389 305.721130,155.847275 
	C303.636536,153.442368 301.962097,150.167725 299.971558,147.098038 
	C298.921326,145.478409 297.319885,144.216202 295.971375,142.433563 
	C289.244446,128.838699 282.498077,115.610626 275.796753,102.359779 
	C274.606171,100.005615 273.731201,99.558144 271.066986,101.221603 
	C252.406494,112.872742 233.586456,124.269997 214.749588,135.635986 
	C209.289062,138.930817 209.187500,138.762497 212.974945,144.497833 
	C221.989838,161.610474 230.922958,178.397568 240.117081,195.040512 
	C240.928482,196.509308 243.480652,197.919983 245.163574,197.852081 
	C253.846634,197.501846 262.681061,197.507614 271.141144,195.798065 
	C284.851868,193.027527 297.430817,187.721130 304.098480,173.912308 
	C304.337402,173.417511 305.348694,173.295670 306.000000,173.000000 
M138.821350,279.639191 
	C138.880264,254.860626 138.949127,230.082047 138.947998,205.303482 
	C138.947968,204.590622 138.205505,203.877808 136.909470,203.004318 
	C127.504730,202.665771 118.099541,202.042313 108.695358,202.057236 
	C95.470436,202.078232 82.246269,202.572998 68.569893,202.128571 
	C59.394978,202.141312 50.220062,202.154053 40.360531,202.189697 
	C28.208752,200.471848 16.989767,196.732315 8.098254,187.268524 
	C7.865962,188.972122 7.732874,190.592133 8.381676,191.787918 
	C20.420031,213.975311 33.200954,235.789291 44.430138,258.375641 
	C51.651340,272.900360 63.423603,279.052765 78.043007,279.748383 
	C97.972633,280.696686 117.985802,279.889069 138.821350,279.639191 
M198.012772,280.010712 
	C210.047882,279.956085 222.082993,279.901489 234.878067,279.946136 
	C248.881073,276.745972 257.916168,267.953491 263.568817,255.021393 
	C266.042755,249.361542 269.203308,243.995178 272.160248,238.554352 
	C280.643677,222.944733 289.194092,207.371552 297.669647,191.757690 
	C298.169830,190.836227 298.242157,189.682526 298.790405,187.570587 
	C293.932434,190.824570 290.386505,193.686951 286.425751,195.754684 
	C277.241974,200.549149 267.103912,201.929871 256.043488,203.048828 
	C236.382782,203.003586 216.722061,202.958359 197.011322,202.004135 
	C196.622406,195.426056 196.233490,188.847977 195.777893,181.142181 
	C194.309738,182.347122 193.195297,182.856140 192.711090,183.718872 
	C182.514435,201.886841 172.306656,220.050186 162.385010,238.368210 
	C161.459686,240.076614 161.693680,243.201004 162.641708,245.012558 
	C170.946243,260.881256 179.502380,276.618927 188.065842,292.350861 
	C190.011566,295.925415 192.275406,299.326782 194.392822,302.807861 
	C194.763840,302.707611 195.134842,302.607361 195.505859,302.507111 
	C196.032883,295.028717 196.559906,287.550323 198.012772,280.010712 
M142.484573,66.046837 
	C145.727722,60.831612 148.868042,55.548157 152.262222,50.433163 
	C153.715622,48.242916 153.666061,46.545563 152.171997,44.447411 
	C146.832230,36.948658 141.730377,29.278915 136.323273,21.830114 
	C130.454895,13.745864 122.891861,7.383574 112.974869,5.662900 
	C101.370842,3.649513 93.767960,3.735933 86.050537,15.454129 
	C76.976860,29.231680 68.011536,43.080654 59.017323,56.910427 
	C57.218281,59.676678 55.500645,62.495872 53.690983,65.377434 
	C75.869583,78.567780 97.515190,91.441139 119.269897,104.379395 
	C127.021790,91.541847 134.534958,79.099625 142.484573,66.046837 
z"/>
<path fill="#FFDE59" opacity="1.000000" stroke="none" 
	d="
M207.600006,1.000000 
	C208.452667,1.664578 208.766693,2.717066 209.378708,2.935797 
	C219.245300,6.462134 226.116470,13.143676 230.854034,22.398336 
	C235.258301,31.001932 240.026901,39.419022 244.889557,48.387581 
	C251.550049,45.003841 258.221222,41.614677 264.892395,38.225510 
	C265.210114,38.635368 265.527832,39.045227 265.845551,39.455086 
	C254.095459,58.851868 242.345352,78.248650 230.470612,97.851181 
	C207.913834,97.851181 185.135712,97.851181 161.568848,97.851181 
	C162.509323,96.621880 162.961075,95.611130 163.740158,95.085930 
	C167.091919,92.826378 170.574417,90.761665 173.945084,88.529030 
	C179.958344,84.546013 180.070389,84.443954 176.599274,78.174026 
	C167.128860,61.067520 157.968445,43.766491 147.832947,27.059563 
	C141.637131,16.846617 132.922241,8.695771 121.544434,3.933686 
	C120.721451,3.589231 120.295784,2.295481 119.342697,1.221551 
	C122.692909,1.000000 126.385826,1.000000 130.816879,1.320611 
	C140.036682,1.427481 148.518341,1.213740 157.000000,1.000000 
	C163.354401,1.000000 169.708786,1.000000 176.843277,1.277396 
	C181.723770,1.701647 185.828796,2.042094 189.923355,1.944400 
	C194.620407,1.832331 199.308197,1.331785 204.000000,1.000000 
	C205.066666,1.000000 206.133347,1.000000 207.600006,1.000000 
z"/>
<path fill="#FF3232" opacity="1.000000" stroke="none" 
	d="
M0.999999,155.467941 
	C1.955135,154.157227 3.151596,153.471191 3.819954,152.442154 
	C5.790924,149.407547 7.552779,146.237106 10.178037,143.008057 
	C39.917515,142.908279 68.875420,142.920288 97.833328,142.932312 
	C101.757729,149.936859 105.682137,156.941406 109.606537,163.945969 
	C109.230354,164.270813 108.854172,164.595657 108.477989,164.920517 
	C103.869690,162.373428 99.244514,159.856262 94.658836,157.269089 
	C91.447327,155.457199 89.324539,155.510315 87.157860,159.295242 
	C79.962975,171.863846 72.354454,184.197311 64.774284,196.540939 
	C64.093079,197.650238 62.470726,198.879562 61.287949,198.877075 
	C46.049850,198.844727 30.714901,199.276260 17.243748,190.091354 
	C10.480314,185.479919 5.967734,179.012726 1.279868,172.693436 
	C1.000000,167.311966 1.000000,161.623917 0.999999,155.467941 
z"/>
<path fill="#FF3232" opacity="1.000000" stroke="none" 
	d="
M295.967316,142.792603 
	C297.319885,144.216202 298.921326,145.478409 299.971558,147.098038 
	C301.962097,150.167725 303.636536,153.442368 305.721130,156.315933 
	C306.000000,161.354935 306.000000,166.709854 306.000000,172.532410 
	C305.348694,173.295670 304.337402,173.417511 304.098480,173.912308 
	C297.430817,187.721130 284.851868,193.027527 271.141144,195.798065 
	C262.681061,197.507614 253.846634,197.501846 245.163574,197.852081 
	C243.480652,197.919983 240.928482,196.509308 240.117081,195.040512 
	C230.922958,178.397568 221.989838,161.610474 213.190948,144.116516 
	C215.364517,143.224869 217.333588,142.956680 219.303436,142.950943 
	C244.857986,142.876434 270.412659,142.839218 295.967316,142.792603 
z"/>
<path fill="#FFE990" opacity="1.000000" stroke="none" 
	d="
M203.531342,1.000000 
	C199.308197,1.331785 194.620407,1.832331 189.923355,1.944400 
	C185.828796,2.042094 181.723770,1.701647 177.311676,1.277396 
	C185.687561,1.000000 194.375137,1.000000 203.531342,1.000000 
z"/>
<path fill="#FFF4C8" opacity="1.000000" stroke="none" 
	d="
M156.531342,1.000000 
	C148.518341,1.213740 140.036682,1.427481 131.277512,1.320611 
	C139.354233,1.000000 147.708466,1.000000 156.531342,1.000000 
z"/>
<path fill="#FF3231" opacity="1.000000" stroke="none" 
	d="
M256.972198,203.165054 
	C267.103912,201.929871 277.241974,200.549149 286.425751,195.754684 
	C290.386505,193.686951 293.932434,190.824570 298.790405,187.570587 
	C298.242157,189.682526 298.169830,190.836227 297.669647,191.757690 
	C289.194092,207.371552 280.643677,222.944733 272.160248,238.554352 
	C269.203308,243.995178 266.042755,249.361542 263.568817,255.021393 
	C257.916168,267.953491 248.881073,276.745972 234.167587,279.625244 
	C221.741730,279.207062 210.026367,279.099030 198.310822,279.057556 
	C197.904053,279.056122 197.494934,279.718811 197.086914,280.071930 
	C196.559906,287.550323 196.032883,295.028717 195.505859,302.507111 
	C195.134842,302.607361 194.763840,302.707611 194.392822,302.807861 
	C192.275406,299.326782 190.011566,295.925415 188.065842,292.350861 
	C179.502380,276.618927 170.946243,260.881256 162.641708,245.012558 
	C161.693680,243.201004 161.459686,240.076614 162.385010,238.368210 
	C172.306656,220.050186 182.514435,201.886841 192.711090,183.718872 
	C193.195297,182.856140 194.309738,182.347122 195.777893,181.142181 
	C196.233490,188.847977 196.622406,195.426056 197.311356,202.768799 
	C198.580704,203.688797 199.549927,203.978806 200.519348,203.979462 
	C217.896683,203.991257 235.274094,203.986496 252.651230,203.918365 
	C254.092514,203.912720 255.531921,203.427475 256.972198,203.165054 
z"/>
<path fill="#FF3231" opacity="1.000000" stroke="none" 
	d="
M69.021774,202.865143 
	C82.246269,202.572998 95.470436,202.078232 108.695358,202.057236 
	C118.099541,202.042313 127.504730,202.665771 137.412964,203.539398 
	C137.932007,229.327744 137.947586,254.581039 137.963150,279.834320 
	C117.985802,279.889069 97.972633,280.696686 78.043007,279.748383 
	C63.423603,279.052765 51.651340,272.900360 44.430138,258.375641 
	C33.200954,235.789291 20.420031,213.975311 8.381676,191.787918 
	C7.732874,190.592133 7.865962,188.972122 8.098254,187.268524 
	C16.989767,196.732315 28.208752,200.471848 41.008881,202.458344 
	C50.778744,202.773041 59.900261,202.819092 69.021774,202.865143 
z"/>
<path fill="#FFDE59" opacity="1.000000" stroke="none" 
	d="
M142.266357,66.352127 
	C134.534958,79.099625 127.021790,91.541847 119.269897,104.379395 
	C97.515190,91.441139 75.869583,78.567780 53.690983,65.377434 
	C55.500645,62.495872 57.218281,59.676678 59.017323,56.910427 
	C68.011536,43.080654 76.976860,29.231680 86.050537,15.454129 
	C93.767960,3.735933 101.370842,3.649513 112.974869,5.662900 
	C122.891861,7.383574 130.454895,13.745864 136.323273,21.830114 
	C141.730377,29.278915 146.832230,36.948658 152.171997,44.447411 
	C153.666061,46.545563 153.715622,48.242916 152.262222,50.433163 
	C148.868042,55.548157 145.727722,60.831612 142.266357,66.352127 
z"/>
<path fill="#FFDD59" opacity="1.000000" stroke="none" 
	d="
M97.904259,142.572372 
	C68.875420,142.920288 39.917515,142.908279 10.496153,142.845367 
	C13.954263,135.371445 17.846064,127.932449 21.812939,120.533714 
	C23.273468,117.809654 23.554550,115.868507 20.414028,113.736305 
	C15.100365,110.128677 10.226744,105.872902 4.037495,100.999352 
	C12.395377,100.999352 19.301722,100.999352 26.208067,100.999359 
	C39.711582,100.999374 53.363945,102.204781 66.664642,100.562340 
	C75.091492,99.521744 77.172218,103.543045 80.069382,109.076447 
	C85.892372,120.198021 91.990562,131.175507 97.904259,142.572372 
z"/>
<path fill="#FFDD59" opacity="1.000000" stroke="none" 
	d="
M295.971375,142.433563 
	C270.412659,142.839218 244.857986,142.876434 219.303436,142.950943 
	C217.333588,142.956680 215.364517,143.224869 213.179077,143.752380 
	C209.187500,138.762497 209.289062,138.930817 214.749588,135.635986 
	C233.586456,124.269997 252.406494,112.872742 271.066986,101.221603 
	C273.731201,99.558144 274.606171,100.005615 275.796753,102.359779 
	C282.498077,115.610626 289.244446,128.838699 295.971375,142.433563 
z"/>
<path fill="#FFD3BC" opacity="1.000000" stroke="none" 
	d="
M138.392242,279.736755 
	C137.947586,254.581039 137.932007,229.327744 137.862823,203.619720 
	C138.205505,203.877808 138.947968,204.590622 138.947998,205.303482 
	C138.949127,230.082047 138.880264,254.860626 138.392242,279.736755 
z"/>
<path fill="#FF8443" opacity="1.000000" stroke="none" 
	d="
M256.507843,203.106934 
	C255.531921,203.427475 254.092514,203.912720 252.651230,203.918365 
	C235.274094,203.986496 217.896683,203.991257 200.519348,203.979462 
	C199.549927,203.978806 198.580704,203.688797 197.336365,203.223297 
	C216.722061,202.958359 236.382782,203.003586 256.507843,203.106934 
z"/>
<path fill="#FF6363" opacity="1.000000" stroke="none" 
	d="
M197.549850,280.041321 
	C197.494934,279.718811 197.904053,279.056122 198.310822,279.057556 
	C210.026367,279.099030 221.741730,279.207062 233.787598,279.575623 
	C222.082993,279.901489 210.047882,279.956085 197.549850,280.041321 
z"/>
<path fill="#FFC671" opacity="1.000000" stroke="none" 
	d="
M68.795837,202.496857 
	C59.900261,202.819092 50.778744,202.773041 41.351189,202.446899 
	C50.220062,202.154053 59.394978,202.141312 68.795837,202.496857 
z"/>
</svg>